# xmcd CD database file
#
# Track frame offsets:
#	177
#	11627
#	26535
#	42187
#	55040
#	70775
#	82627
#	94712
#	102990
#
# Disc length: 1524 seconds
#
# Revision: 2
# Processed by: cddbd v1.5.2PL0 Copyright (c) Steve Scherf et al.
# Submitted via: CDex 1.81
#
DISCID=5e05f209
DTITLE=Dinah Washington - Golden Classics
DYEAR=1991
DGENRE=Blues
TTITLE0=I Cried For You
TTITLE1=A Cottage For Sale
TTITLE2=Smoke Gets In Your Eyes
TTITLE3=Look To The Rainbow
TTITLE4=Willow Weep For Me
TTITLE5=Ain't Misbehavin'
TTITLE6=Keepin Out Of Mischief
TTITLE7=Jitterbug Waltz
TTITLE8=What A Difference A Day Made
EXTD=YEAR: 1991
EXTT0=
EXTT1=
EXTT2=
EXTT3=
EXTT4=
EXTT5=
EXTT6=
EXTT7=
EXTT8=
PLAYORDER=
